<svg width="29" height="28" viewBox="0 0 29 28" fill="none" xmlns="http://www.w3.org/2000/svg">
<path d="M5.51758 22.0566H6.58105C7.24902 22.0566 7.76758 21.5381 7.76758 20.8701V19.4375C9.70117 19.5518 12.3379 19.6221 14.5 19.6221C16.6533 19.6221 19.29 19.5518 21.2236 19.4375V20.8701C21.2236 21.5381 21.7422 22.0566 22.4189 22.0566H23.4736C24.1504 22.0566 24.6689 21.5381 24.6689 20.8701V18.5586C24.959 18.2158 25.1172 17.7588 25.1172 17.1963V15.6494C25.1172 14.1025 24.8447 13.2324 24.0098 12.1777L23.2275 11.1934C22.9023 9.61133 22.3223 7.9502 22.0146 7.2998C21.5225 6.2627 20.5732 5.64746 19.3604 5.48047C18.7188 5.39258 16.8379 5.34863 14.5 5.34863C12.1621 5.34863 10.2725 5.40137 9.63965 5.48047C8.42676 5.62988 7.46875 6.2627 6.98535 7.2998C6.67773 7.9502 6.09766 9.61133 5.77246 11.1934L4.99023 12.1777C4.15527 13.2324 3.88281 14.1025 3.88281 15.6494V17.1963C3.88281 17.7588 4.04102 18.2158 4.33105 18.5586V20.8701C4.33105 21.5381 4.84961 22.0566 5.51758 22.0566ZM14.5 18.1982C11.4854 18.1982 7.74121 18.0576 6.31738 17.8906C5.56152 17.8027 5.28027 17.416 5.28027 16.748V15.5703C5.28027 14.3838 5.50879 13.8213 6.12402 13.0039L7.07324 11.7646C7.29297 10.5869 7.86426 8.75879 8.22461 7.97656C8.52344 7.35254 9.08594 6.99219 9.85059 6.89551C10.457 6.81641 12.1709 6.74609 14.5 6.74609C16.8291 6.74609 18.5693 6.8252 19.1318 6.89551C19.9229 6.99219 20.4678 7.36133 20.7666 7.98535C21.1445 8.75 21.6982 10.5693 21.918 11.7646L22.8672 13.0039C23.4912 13.8213 23.7109 14.3838 23.7109 15.5703V16.748C23.7109 17.416 23.4297 17.8027 22.6826 17.8906C21.2588 18.0576 17.5146 18.1982 14.5 18.1982ZM8.26855 10.8857C8.18066 11.2461 8.33887 11.4131 8.7168 11.3955C10.0088 11.3164 11.6348 11.2373 14.5 11.2373C17.3652 11.2373 18.9912 11.3164 20.2744 11.3955C20.6611 11.4131 20.8105 11.2461 20.7314 10.8857C20.5381 10.042 20.1777 8.93457 19.9229 8.49512C19.6768 8.05566 19.3955 7.87109 18.877 7.80078C18.2793 7.72168 16.8467 7.66016 14.5 7.66016C12.1533 7.66016 10.7119 7.72168 10.123 7.80078C9.60449 7.87109 9.31445 8.05566 9.07715 8.49512C8.82227 8.93457 8.46191 10.042 8.26855 10.8857ZM8.13672 17.0645C8.98047 17.0645 9.61328 16.4316 9.61328 15.5967C9.61328 14.7529 8.98047 14.1201 8.13672 14.1201C7.30176 14.1201 6.66895 14.7529 6.66895 15.5967C6.66895 16.4316 7.30176 17.0645 8.13672 17.0645ZM20.8545 17.0645C21.6982 17.0645 22.3311 16.4316 22.3311 15.5967C22.3311 14.7529 21.6982 14.1201 20.8545 14.1201C20.0195 14.1201 19.3867 14.7529 19.3867 15.5967C19.3867 16.4316 20.0195 17.0645 20.8545 17.0645ZM12.127 16.6953H16.873C17.4971 16.6953 17.9365 16.2559 17.9365 15.6318C17.9365 15.0078 17.4971 14.5684 16.873 14.5684H12.127C11.4941 14.5684 11.0547 15.0078 11.0547 15.6318C11.0547 16.2559 11.4941 16.6953 12.127 16.6953Z" fill="#1C1C1E"/>
</svg>
