<svg width="29" height="29" viewBox="0 0 29 29" fill="none" xmlns="http://www.w3.org/2000/svg">
<mask id="mask0_42_121" style="mask-type:alpha" maskUnits="userSpaceOnUse" x="0" y="0" width="29" height="29">
<rect width="28.2162" height="28.2162" fill="#D9D9D9"/>
</mask>
<g mask="url(#mask0_42_121)">
<path d="M14.1093 25.8651C12.5025 25.8651 10.984 25.5565 9.55355 24.9392C8.12315 24.322 6.87399 23.4794 5.80609 22.4115C4.73818 21.3436 3.89561 20.0945 3.27838 18.6641C2.66115 17.2337 2.35254 15.7151 2.35254 14.1083C2.35254 12.482 2.66115 10.9585 3.27838 9.53788C3.89561 8.11727 4.73818 6.87302 5.80609 5.80511C6.87399 4.7372 8.12315 3.89464 9.55355 3.27741C10.984 2.66018 12.5025 2.35156 14.1093 2.35156C15.7356 2.35156 17.2591 2.66018 18.6797 3.27741C20.1003 3.89464 21.3446 4.7372 22.4125 5.80511C23.4804 6.87302 24.323 8.11727 24.9402 9.53788C25.5574 10.9585 25.8661 12.482 25.8661 14.1083C25.8661 15.7151 25.5574 17.2337 24.9402 18.6641C24.323 20.0945 23.4804 21.3436 22.4125 22.4115C21.3446 23.4794 20.1003 24.322 18.6797 24.9392C17.2591 25.5565 15.7356 25.8651 14.1093 25.8651ZM13.2275 24.0428V19.5164C12.0911 19.3205 11.1162 18.8012 10.303 17.9587C9.48987 17.1161 8.95592 16.1266 8.70119 14.9901H4.17484C4.37078 17.4198 5.32112 19.4821 7.02585 21.1771C8.73058 22.872 10.7978 23.8272 13.2275 24.0428ZM14.9911 24.0428C17.4404 23.8468 19.5125 22.8965 21.2074 21.1918C22.9024 19.487 23.8478 17.4198 24.0438 14.9901H19.5174C19.2431 16.1266 18.7091 17.1161 17.9155 17.9587C17.122 18.8012 16.1471 19.3205 14.9911 19.5164V24.0428ZM4.17484 13.2266H8.6424L11.9343 9.75832H16.2843L19.5762 13.2266H24.0438C23.8282 10.6401 22.7652 8.47487 20.8547 6.73095C18.9443 4.98704 16.6958 4.11508 14.1093 4.11508C11.5228 4.11508 9.27433 4.98704 7.36386 6.73095C5.45338 8.47487 4.39038 10.6401 4.17484 13.2266Z" fill="#1270DD"/>
</g>
<rect x="13.3242" y="22.7295" width="1.56757" height="6.27027" fill="#1270DD"/>
<rect x="5.48633" y="27.4326" width="17.2432" height="1.56757" fill="#1270DD"/>
</svg>
