<svg width="73" height="18" viewBox="0 0 73 18" fill="none" xmlns="http://www.w3.org/2000/svg">
<path d="M14.9023 3.61719V5.58984H2.53906V0.238281H5.01953V3.61719H14.9023ZM16.7773 6.78125V8.75391H0.507812V6.78125H16.7773ZM14.8242 9.82812V14.5547H4.90234V15.6875H15.3711V17.6016H2.40234V12.7578H12.3438V11.7422H2.36328V9.82812H14.8242ZM23.5742 1.21484C26.3867 1.19531 28.4961 3.03125 28.4961 5.57031C28.4961 8.12891 26.3867 9.94531 23.5742 9.94531C20.7617 9.94531 18.6328 8.12891 18.6328 5.57031C18.6328 3.03125 20.7617 1.19531 23.5742 1.21484ZM23.5742 3.36328C22.168 3.36328 21.0938 4.18359 21.1133 5.57031C21.0938 6.97656 22.168 7.77734 23.5742 7.77734C24.9805 7.77734 26.0547 6.97656 26.0742 5.57031C26.0547 4.18359 25 3.36328 23.5742 3.36328ZM32.7539 0.0234375V17.8359H30.2734V0.0234375H32.7539ZM17.8906 12.1719C21.0547 12.1914 25.4492 12.1328 29.2578 11.6055L29.4531 13.4023C25.5078 14.1641 21.2891 14.2031 18.1836 14.2031L17.8906 12.1719ZM55.957 8.67578V10.668H49.2188V13.7539H46.6992V10.668H39.6875V8.67578H55.957ZM54.1602 15.4727V17.4844H41.6211V12.1719H44.1406V15.4727H54.1602ZM47.8125 0.355469C51.6602 0.375 54.2188 1.80078 54.2383 4.04688C54.2188 6.3125 51.6602 7.71875 47.8125 7.71875C43.9453 7.71875 41.3672 6.3125 41.3672 4.04688C41.3672 1.80078 43.9453 0.375 47.8125 0.355469ZM47.8125 2.32812C45.5078 2.32812 44.043 2.91406 44.0625 4.04688C44.043 5.14062 45.5078 5.72656 47.8125 5.72656C50.0977 5.72656 51.5625 5.14062 51.5625 4.04688C51.5625 2.91406 50.0977 2.32812 47.8125 2.32812ZM71.9727 0.0429688V13.0117H69.4922V6.64453H66.582V4.63281H69.4922V0.0429688H71.9727ZM72.4023 15.4922V17.4844H60.1758V11.8789H62.6758V15.4922H72.4023ZM63.7109 3.51953C63.7109 5.57031 64.9609 7.77734 67.793 8.69531L66.5625 10.668C64.5898 10.0332 63.2422 8.73438 62.4609 7.11328C61.6797 8.91016 60.2637 10.3359 58.1641 11.0391L56.8945 9.00781C59.8242 8.08984 61.1523 5.76562 61.1719 3.5V3.22656H57.5977V1.23438H67.2461V3.22656H63.7109V3.51953Z" fill="#1270DD"/>
</svg>
