<svg width="35" height="35" viewBox="0 0 35 35" fill="none" xmlns="http://www.w3.org/2000/svg">
<path d="M9.16162 28.9001C10.502 28.9001 13.699 27.5049 15.6985 26.0986C15.9072 25.9448 16.083 25.8899 16.2588 25.8899C16.4016 25.9009 16.5334 25.9119 16.6543 25.9119C24.5754 25.9009 30.2444 21.5833 30.2444 15.6506C30.2444 9.9707 24.5645 5.40039 17.4893 5.40039C10.4141 5.40039 4.74512 9.9707 4.74512 15.6506C4.74512 19.1882 6.87646 22.3523 10.48 24.2969C10.6777 24.4177 10.7327 24.5825 10.6338 24.7803C9.99658 25.8459 8.93091 27.0325 8.49145 27.5928C7.99707 28.219 8.28271 28.9001 9.16162 28.9001Z" fill="black"/>
</svg>
