<svg width="12" height="11" viewBox="0 0 12 11" fill="none" xmlns="http://www.w3.org/2000/svg">
<path d="M11.3854 3.68479L8.10851 3.22695L6.64413 0.382637C6.51249 0.128477 6.2557 0 5.99891 0C5.74369 0 5.48869 0.126758 5.35661 0.382637L3.89177 3.22674L0.614645 3.68414C0.026965 3.76578 -0.208555 4.45951 0.217485 4.85697L2.58813 7.06986L2.02709 10.1954C1.94739 10.6419 2.3188 11 2.73477 11C2.84514 11 2.95865 10.9749 3.06768 10.9194L5.99936 9.44389L8.93082 10.9199C9.03962 10.9746 9.1529 10.9996 9.26283 10.9996C9.67924 10.9996 10.0513 10.6427 9.97163 10.1961L9.41126 7.07029L11.7824 4.85783C12.2086 4.46037 11.9731 3.76643 11.3854 3.68479ZM8.65993 6.33166L8.25426 6.71021L8.35008 7.24475L8.78709 9.68215L6.50062 8.5308L5.99958 8.27857L6.00025 1.46395L7.1427 3.68307L7.393 4.16926L7.95292 4.24746L10.5103 4.60475L8.65993 6.33166Z" fill="#6E7191"/>
</svg>
