<svg width="23" height="33" viewBox="0 0 23 33" fill="none" xmlns="http://www.w3.org/2000/svg">
<path d="M11.5 0C5.16235 0 0 5.71095 0 12.7221C0 14.6869 0.736217 16.7784 1.74746 18.944C2.75871 21.1098 4.08009 23.3319 5.39512 25.3448C8.02517 29.3703 10.6465 32.5805 10.6465 32.5805C10.7543 32.7126 10.886 32.8181 11.033 32.8904C11.18 32.9627 11.3391 33 11.5 33C11.6609 33 11.82 32.9627 11.967 32.8904C12.114 32.8181 12.2457 32.7126 12.3535 32.5805C12.3535 32.5805 14.9748 29.3703 17.6049 25.3448C18.9199 23.3319 20.2413 21.1098 21.2525 18.944C22.2638 16.7784 23 14.6869 23 12.7221C23 5.71095 17.8376 0 11.5 0ZM11.5 2.54442C16.5946 2.54442 20.7 7.08595 20.7 12.7221C20.7 13.9192 20.1425 15.7856 19.2131 17.7761C18.2837 19.7664 17.0176 21.9064 15.7451 23.8539C13.6267 27.0965 12.1521 28.8806 11.5 29.6981C10.8479 28.8806 9.3733 27.0965 7.25488 23.8539C5.98241 21.9064 4.71629 19.7664 3.78691 17.7761C2.85753 15.7856 2.3 13.9192 2.3 12.7221C2.3 7.08595 6.40536 2.54442 11.5 2.54442ZM11.5 6.36104C8.97311 6.36104 6.9 8.65458 6.9 11.4499C6.9 14.2454 8.97311 16.5387 11.5 16.5387C14.0269 16.5387 16.1 14.2454 16.1 11.4499C16.1 8.65458 14.0269 6.36104 11.5 6.36104ZM11.5 8.90546C12.7839 8.90546 13.8 10.0296 13.8 11.4499C13.8 12.8702 12.7839 13.9943 11.5 13.9943C10.2161 13.9943 9.2 12.8702 9.2 11.4499C9.2 10.0296 10.2161 8.90546 11.5 8.90546Z" fill="#1270DD"/>
<path d="M11.5004 1.5C6.40575 1.5 1.5 7.08597 1.5 12.7221C1.5 13.9193 2.07062 15.7857 3 17.7762C3.92938 19.7664 5.62792 22.5525 6.90039 24.5C9.01881 27.7426 10.8483 29.6825 11.5004 30.5C12.1525 29.6825 13.982 27.7426 16.1004 24.5C17.3729 22.5525 19.0712 19.7664 20.0006 17.7762C20.93 15.7857 21.5 13.9193 21.5 12.7221C21.5 7.08597 16.595 1.5 11.5004 1.5ZM11.5004 7.5C14.0273 7.5 15 9.5 15 11.4499C15 14.2454 14.0273 15.5 11.5004 15.5C8.97351 15.5 8 14.2454 8 11.4499C8 8.6546 8.97351 7.5 11.5004 7.5Z" fill="#1270DD"/>
</svg>
